# xmcd CD database file
#
# Track frame offsets:
#	187
#	18967
#	34515
#	49237
#	66855
#	87745
#	103480
#	117602
#	128695
#	145150
#	157155
#	173885
#	195687
#
# Disc length: 2871 seconds
#
# Revision: 1
# Processed by: cddbd v1.5.2PL0 Copyright (c) Steve Scherf et al.
# Submitted via: CDex 1.70beta3
#
DISCID=c00b350d
DTITLE=The Mad Capsule Markets - ＰＡＲＫ
DYEAR=1994
DGENRE=Rock
TTITLE0=ＨＩ−ＳＩＤＥ
TTITLE1=ＬＩＭＩＴ
TTITLE2=ＩＮ　ＳＵＲＦＡＣＥ　ＮＯＩＳＥ
TTITLE3=パラサイト
TTITLE4=公園へあと少し
TTITLE5=ＨＡＢＩＴ
TTITLE6=ＣＲ’ＯＣＫ　ＯＮ　ＴＨＥ　ＷＯＲＫ
TTITLE7=時ノ音
TTITLE8=生まれたばかりの絵画を燃やせ
TTITLE9=Ｐ−Ａ−Ｒ−Ｋ
TTITLE10=ＭＵＳＴＡＲＤ
TTITLE11=ＴＨＥ　ＬＩＦＥ　ＩＮ　ＦＡＩＲＹ　ＳＴＯＲＹ
TTITLE12=太陽の下
EXTD=YEAR: 1994
EXTT0=
EXTT1=
EXTT2=
EXTT3=
EXTT4=
EXTT5=
EXTT6=
EXTT7=
EXTT8=
EXTT9=
EXTT10=
EXTT11=
EXTT12=
PLAYORDER=
